<svg xmlns="http://www.w3.org/2000/svg" id="DyD" viewBox="0 0 150.44 128.73"><defs><style>.cls-1{font-size:82.73px;font-family:ACaslonPro-Regular, Adobe Caslon Pro;}.cls-1,.cls-2{fill:#fff;stroke:#fff;stroke-miterlimit:10;}</style></defs><title>DyD</title><text class="cls-1" transform="translate(0.5 70.32) scale(1.01 1)">D</text><text class="cls-1" transform="translate(83.19 70.32) scale(0.99 1)">D</text><path class="cls-2" d="M215.86,436.67c0-1.68,39.31,23.54,41.15,23.94,1.51.33,2.17.47,2.79.08a5.63,5.63,0,0,0,2.15-2c1.28-1.82,5.47-8.22,6.57-11.35-.39-2-8.69-27.09-9.32-28.77-.94-2-1.64-3.37-3.68-3.37h-2c-.55,0-.63-.24-.63-.72v-1.6c0-.32.08-.56.63-.56s2.58.24,7.2.24c4,0,6.42-.24,7.28-.24.63,0,.7.24.7.56v1.68c0,.4-.07.64-.47.64h-1.48c-.86,0-1.18.56-1,1.77.23,1.76,4.65,19.47,5.51,21.23h1.22c.78-1.28,7.59-17.95,8.06-19.95s-.15-3.05-1.33-3.05h-1.25c-.47,0-.55-.24-.55-.64v-1.6c0-.4.08-.64.47-.64,1,0,2.66.24,6.42.24,2.12,0,3.92-.24,4.78-.24.47,0,.47.32.47.64v1.52c0,.48,0,.72-.39.72h-1.26a3.5,3.5,0,0,0-2.74,1.44c-1.72,2.17-6.89,14.43-12.29,27-3.83,8.9-6.89,16.35-8.29,19-1.1,2.08-2.57,5.92-6.66,5.21C251.52,466.72,215.86,439.07,215.86,436.67Z" transform="translate(-191.59 -376.93)"></path></svg>